<svg xmlns="http://www.w3.org/2000/svg" width="202.963" height="59" viewBox="0 0 202.963 59">
  <g id="Group_2" data-name="Group 2" transform="translate(-34.037 -6)">
    <g id="Group_1" data-name="Group 1">
      <path id="Path_1" data-name="Path 1" d="M146.341,47.514c1-1.472-4.321,6.229-4.321,6.229s-21.1-16.061,1.378-28.61c.567-.446,41.011,0,41.011,0L165.472,58.309h4.51s5.761,3.8,0,6.892c.242.432-17.056,0-17.056,0l19.082-32.47H146.341S134.434,39.722,146.341,47.514Z" transform="translate(-99 -16)" fill="#fff"/>
      <path id="Path_2" data-name="Path 2" d="M148.642,38.745s-5.1-4.825,0-7.287c.042-.292,16.162,0,16.162,0L146.141,65.144h23.706s13.363-2.7,3.252-14.767c-.132-.048,3.159-6.221,3.159-6.221s21.64,20.234-4.694,27.867c.348-.118-38.312,0-38.312,0l19.306-33.278Z" transform="translate(-98.84 -11.239)" fill="#fff"/>
    </g>
    <text id="ZARE" transform="translate(97 53)" fill="#fff" font-size="49" font-family="Montserrat-Bold, Montserrat" font-weight="700"><tspan x="0" y="0">ZARE</tspan></text>
  </g>
</svg>
